<svg width="30" height="23" viewBox="0 0 30 23" fill="none" xmlns="http://www.w3.org/2000/svg">
<path d="M9.27093 20.6609C6.72033 23.184 2.40058 23.174 1.19419 19.8113C0.957996 19.1529 0.76915 18.476 0.630255 17.7852C0.0631474 14.9649 0.354208 12.0416 1.46663 9.38495C2.57905 6.72835 4.46287 4.45767 6.87986 2.86011C9.2969 1.26255 12.1385 0.409851 15.0454 0.409851C17.9523 0.409851 20.7939 1.26255 23.2109 2.86011C25.6279 4.45767 27.5117 6.72835 28.6241 9.38503C29.7366 12.0416 30.0276 14.9649 29.4605 17.7852C29.3216 18.476 29.1328 19.1529 28.8965 19.8113C27.6901 23.174 23.3704 23.184 20.8198 20.6609L16.8826 16.7662C16.5064 16.3941 16.5453 15.7804 16.6491 15.2643C16.7121 14.9506 16.6797 14.6254 16.556 14.3299C16.4322 14.0343 16.2227 13.7817 15.9538 13.604C15.6849 13.4263 15.3688 13.3314 15.0454 13.3314C14.722 13.3314 14.4059 13.4263 14.137 13.604C13.8681 13.7817 13.6585 14.0343 13.5348 14.3299C13.411 14.6254 13.3786 14.9506 13.4418 15.2643C13.5455 15.7804 13.5843 16.3941 13.2082 16.7662L9.27093 20.6609Z" fill="url(#paint0_linear_19_26)"/>
<defs>
<linearGradient id="paint0_linear_19_26" x1="28.4051" y1="7.67934" x2="2.31694" y2="7.67934" gradientUnits="userSpaceOnUse">
<stop stop-color="#161490"/>
<stop offset="0.510417" stop-color="#7476ED"/>
<stop offset="1" stop-color="#E56F8C"/>
</linearGradient>
</defs>
</svg>
